<svg xmlns="http://www.w3.org/2000/svg" width="138" height="67" viewBox="0 0 138 67">
    <g fill="#FFF" fill-rule="evenodd">
        <path d="M129.268 24.319a4.045 4.045 0 0 1-4.04 4.041 4.047 4.047 0 0 1-4.041-4.041v-6.585a4.047 4.047 0 0 1 4.04-4.041 4.045 4.045 0 0 1 4.041 4.041v6.585zm2.056-12.08a8.192 8.192 0 0 0-6.097-2.726c-4.532 0-8.219 3.688-8.219 8.221v6.09a3.59 3.59 0 0 1-3.586 3.587h-6.51c-1.001-4.02-2.368-7.566-4.084-10.622-.797-1.634-1.89-3.184-3.265-4.74-.042-.051-.087-.1-.131-.152l-.127-.142a25.368 25.368 0 0 0-2.223-2.26l-.002.001a63.112 63.112 0 0 0-1.56-1.436c3.825-2.735 8.758-3.88 16.3-3.88V0c-9.83 0-16.1 1.943-20.969 6.496l.08 3.124a75.672 75.672 0 0 1 3.365 2.99h-.001l.008.006c.683.651 1.304 1.285 1.87 1.909a25.43 25.43 0 0 1 2.822 3.976c.823 1.65 1.242 3.371 1.242 5.324a3.59 3.59 0 0 1-3.587 3.586H85.377a3.59 3.59 0 0 1-3.587-3.586V10.396h-4.18V24.32a4.046 4.046 0 0 1-4.04 4.041 4.045 4.045 0 0 1-4.04-4.041V11.583H65.348v12.736a4.044 4.044 0 0 1-4.04 4.04 4.046 4.046 0 0 1-4.042-4.04v-11.55h-4.18v11.056A3.59 3.59 0 0 1 49.5 27.41h-7.475a3.59 3.59 0 0 1-3.586-3.582V10.395h-4.18V23.83a3.59 3.59 0 0 1-3.586 3.582H12.042a3.59 3.59 0 0 1-3.586-3.586V12.769h-4.18v11.056c0 4.281 3.484 7.766 7.766 7.766h18.631c2.241 0 4.257-.96 5.675-2.483a7.741 7.741 0 0 0 5.677 2.483H49.5c2.085 0 3.977-.83 5.373-2.171a8.2 8.2 0 0 0 6.435 3.12 8.193 8.193 0 0 0 6.13-2.764 8.196 8.196 0 0 0 6.132 2.764 8.204 8.204 0 0 0 6.436-3.12 7.73 7.73 0 0 0 5.37 2.17H96.65a7.749 7.749 0 0 0 6.215-3.128c.12.486.237.98.347 1.484l.357 1.645h9.853c2.084 0 3.975-.83 5.37-2.171a8.203 8.203 0 0 0 6.435 3.12c4.533 0 8.222-3.688 8.222-8.221h.003v-6.664a4.047 4.047 0 0 1 4.04-4.042v-4.18a8.198 8.198 0 0 0-6.168 2.805zM23.164 37.23a2.485 2.485 0 1 0-4.97.001 2.485 2.485 0 0 0 4.97 0M25.957 42.586a8.638 8.638 0 0 0-6.452 2.879 8.637 8.637 0 0 0-6.528-2.961v.082a8.637 8.637 0 0 0-6.45 2.876A8.64 8.64 0 0 0 0 42.504v4.18c2.426 0 4.399 1.889 4.399 4.21v14.942h4.18V50.966c.005-2.317 1.976-4.2 4.399-4.2 2.424 0 4.397 1.888 4.397 4.21v14.842h.004v.036h4.18V50.975c0-2.321 1.973-4.209 4.398-4.209 1.187 0 2.3.446 3.132 1.254a4.093 4.093 0 0 1 1.266 2.955v14.88h4.18v-14.88c0-2.252-.9-4.367-2.534-5.953a8.622 8.622 0 0 0-6.044-2.436M54.4 58.097c-.86.915-3.066 2.88-6.134 2.88-1.998 0-3.623-1.551-3.623-3.458V50.975c0-2.321 1.973-4.209 4.399-4.209H54.4v11.33zm.19-15.511h-5.548c-4.73 0-8.58 3.763-8.58 8.39v6.543c0 4.211 3.502 7.637 7.804 7.637 2.475 0 4.54-.788 6.135-1.742v2.423h4.18V46.52c0-2.17-1.79-3.934-3.99-3.934zM84.447 44.7l-3.282-2.59-6.958 8.818-6.957-8.817-3.283 2.588 7.578 9.604-7.577 9.603 3.282 2.589 6.957-8.818 6.958 8.818 3.282-2.59-7.578-9.603zM125.307 42.456c-2.43 0-4.332.818-5.797 1.84v-5.971h-4.18v16.881h4.18v-5.11c1.132-1.38 2.839-3.46 5.797-3.46 2.185 0 3.963 1.699 3.963 3.787v6.268c-.288 3.403-2.219 4.132-3.653 4.383-1.492.263-3 .28-4.48.053-5.256-.806-7.412-4.63-9.683-9.546-3.262-7.063-9.306-10.378-16.573-9.106-4.168.732-6.756 3.74-7.102 8.256l-.008 6.512c0 4.393 3.654 7.966 8.143 7.966 2.125 0 3.73-.629 4.96-1.472v1.947h4.181V52.042h-4.18v5.525c-.11.152-.218.306-.33.465-1.022 1.474-2.08 2.997-4.631 2.997-2.185 0-3.962-1.698-3.962-3.786v-6.268c.288-3.403 2.218-4.131 3.65-4.383 6.843-1.198 10.332 3.004 12.058 6.742 2.504 5.421 5.56 10.807 12.842 11.925a17.89 17.89 0 0 0 5.839-.068c4.168-.731 6.757-3.74 7.102-8.256l.006-6.512c0-4.393-3.652-7.967-8.142-7.967"/>
    </g>
</svg>
