<svg xmlns="http://www.w3.org/2000/svg" width="79" height="44" viewBox="0 0 79 44">
    <g fill="none" fill-rule="evenodd">
        <path fill="#E7E7E7" d="M52.917 36.013h23.489a2.455 2.455 0 0 0 2.448-2.447V21.413a2.447 2.447 0 0 0-1.85-2.373l-7.86-1.982-4.92-9.013a2.785 2.785 0 0 0-2.442-1.45l-8.865-.007v29.425z"/>
        <path fill="#E9475B" d="M13.27 36.013h39.646V.435H13.27a2.455 2.455 0 0 0-2.448 2.447v7.7h12.321a1.987 1.987 0 0 1 1.98 1.98 1.987 1.987 0 0 1-1.98 1.981H10.823v19.023a2.455 2.455 0 0 0 2.448 2.446"/>
        <path fill="#606060" d="M24.765 28.975a7.038 7.038 0 1 1 0 14.075 7.038 7.038 0 0 1 0-14.075"/>
        <path fill="#DDAC57" d="M24.765 32.299a3.714 3.714 0 1 1 0 7.429 3.714 3.714 0 0 1 0-7.43"/>
        <path fill="#606060" d="M69.053 28.975a7.038 7.038 0 1 1 0 14.075 7.038 7.038 0 0 1 0-14.075"/>
        <path fill="#DDAC57" d="M69.053 32.299a3.714 3.714 0 1 1 0 7.429 3.714 3.714 0 0 1 0-7.43"/>
        <path fill="#E9475B" d="M1.99 6.623h30.054a1.987 1.987 0 0 1 1.981 1.98 1.987 1.987 0 0 1-1.98 1.979H1.988A1.987 1.987 0 0 1 .01 8.6a1.987 1.987 0 0 1 1.98-1.98M8.358 14.547h14.785a1.987 1.987 0 0 1 1.982 1.978 1.987 1.987 0 0 1-1.98 1.981H8.358a1.987 1.987 0 0 1-1.981-1.978 1.987 1.987 0 0 1 1.98-1.981M3.269 14.547a1.932 1.932 0 0 1 1.927 1.927v.109a1.932 1.932 0 0 1-1.927 1.927 1.932 1.932 0 0 1-1.927-1.927v-.109a1.932 1.932 0 0 1 1.927-1.927"/>
        <path fill="#C04554" d="M52.917 33.566H31.365a7.03 7.03 0 0 1 .435 2.446h21.117v-2.446zM17.727 36.013a7.03 7.03 0 0 1 .435-2.447h-7.339a2.455 2.455 0 0 0 2.448 2.448h4.456z"/>
        <path fill="#D1D1D1" d="M52.917 33.566v2.447h9.098a7.03 7.03 0 0 1 .435-2.447h-9.533zM75.653 33.566a7.02 7.02 0 0 1 .435 2.447h.316a2.455 2.455 0 0 0 2.447-2.447h-3.198z"/>
        <path fill="#C04554" fill-rule="nonzero" d="M50.689.436h2.228v35.577h-2.228z"/>
        <path fill="#FFF" d="M39.57 19.529c0 2.025-1.86 3.672-4.143 3.672-2.284 0-4.142-1.647-4.142-3.672v-5.985c0-2.025 1.858-3.673 4.142-3.673 2.284 0 4.142 1.648 4.142 3.673v5.985zm2.106-10.98c-1.543-1.516-3.77-2.477-6.25-2.477C30.78 6.072 27 9.424 27 13.544v5.985C27 23.649 30.78 27 35.427 27s8.427-3.352 8.427-7.471h.004v-6.057c0-2.026 1.858-3.673 4.142-3.673V6c-2.52 0-4.778.99-6.324 2.55z" opacity=".408"/>
    </g>
</svg>
