<svg xmlns="http://www.w3.org/2000/svg" width="20" height="14" viewBox="0 0 20 14">
    <path fill="#E9475B" fill-rule="evenodd" d="M1.92 4.315A5.297 5.297 0 0 1 .614 3.167C.204 2.68 0 2.227 0 1.81 0 1.293.154.862.463.517.772.172 1.213 0 1.786 0h16.428c.484 0 .902.156 1.256.467.353.312.53.686.53 1.124 0 .524-.182 1.024-.547 1.501a5.046 5.046 0 0 1-1.361 1.223 9982.48 9982.48 0 0 0-5.224 3.232c-.074.046-.232.147-.474.303-.242.156-.443.282-.603.378-.16.096-.353.204-.58.323-.227.12-.44.209-.642.268-.2.06-.387.09-.558.09H9.99c-.171 0-.357-.03-.558-.09a3.57 3.57 0 0 1-.642-.268 11.88 11.88 0 0 1-.58-.323 23.4 23.4 0 0 1-.603-.378c-.242-.156-.4-.257-.474-.303a565.788 565.788 0 0 0-2.924-1.815A522.463 522.463 0 0 1 1.92 4.315zM18.884 5.38A6.006 6.006 0 0 0 20 4.514v7.895c0 .438-.175.812-.525 1.124a1.83 1.83 0 0 1-1.26.467H1.784a1.83 1.83 0 0 1-1.26-.467C.175 13.22 0 12.847 0 12.409V4.514c.327.325.703.613 1.127.865C3.821 7.01 5.67 8.153 6.674 8.81c.424.279.768.496 1.032.652.265.156.616.315 1.055.477.44.163.848.244 1.228.244h.022c.38 0 .789-.081 1.228-.244.439-.162.79-.321 1.055-.477.264-.156.608-.373 1.032-.651 1.265-.816 3.118-1.96 5.558-3.43z"/>
</svg>
