<svg xmlns="http://www.w3.org/2000/svg" width="22" height="22" viewBox="0 0 22 22">
    <path fill="#FFF" fill-rule="evenodd" d="M11 22C4.925 22 0 17.075 0 11S4.925 0 11 0s11 4.925 11 11-4.925 11-11 11zm6.565-11.334h-1.841V8.734a.261.261 0 0 0-.254-.267h-.525a.261.261 0 0 0-.255.267v1.932H12.85c-.14 0-.255.12-.255.267v.55c0 .148.114.267.255.267h1.841v1.933c0 .147.114.267.255.267h.525c.14 0 .254-.12.254-.267V11.75h1.841c.14 0 .255-.12.255-.267v-.55a.262.262 0 0 0-.255-.267zm-6.188 1.693c-.387-.288-.74-.71-.745-.84 0-.235.02-.348.524-.76.653-.537 1.012-1.241 1.012-1.986 0-.675-.196-1.274-.53-1.695h.259a.245.245 0 0 0 .149-.05l.724-.551a.273.273 0 0 0 .094-.299.257.257 0 0 0-.242-.185h-3.24c-.355 0-.715.066-1.068.193-1.18.427-2.007 1.483-2.007 2.566 0 1.535 1.134 2.698 2.65 2.735a1.392 1.392 0 0 0 .13 1.036h-.042c-1.445 0-2.748.743-3.243 1.85a2.11 2.11 0 0 0-.195.865c0 .28.069.548.203.8.31.584.979 1.037 1.882 1.276.466.124.966.187 1.486.187.468 0 .913-.064 1.325-.189 1.284-.39 2.114-1.382 2.114-2.527 0-1.098-.337-1.756-1.24-2.426zm-4.092 2.514c0-.799.968-1.5 2.07-1.5h.03c.24.004.475.04.695.112l.22.157c.51.365.848.606.941.993.023.097.034.194.034.289 0 .995-.708 1.499-2.103 1.499-1.058 0-1.887-.68-1.887-1.55zM8.29 7.324a.831.831 0 0 1 .652-.315h.028c.716.022 1.401.86 1.527 1.866.071.564-.048 1.094-.318 1.417a.83.83 0 0 1-.66.316h-.012c-.701-.023-1.4-.892-1.526-1.897-.07-.562.042-1.068.309-1.387z"/>
</svg>
