<svg xmlns="http://www.w3.org/2000/svg" width="22" height="22" viewBox="0 0 22 22">
    <path fill="#FFF" fill-rule="evenodd" d="M11 22C4.925 22 0 17.075 0 11S4.925 0 11 0s11 4.925 11 11-4.925 11-11 11zM8.87 9.421H7.135v5.298H8.87V9.421zm.114-1.638c-.011-.52-.377-.915-.97-.915s-.981.395-.981.915c0 .508.376.915.958.915h.012c.604 0 .98-.407.98-.915zm6.14 3.899c0-1.628-.855-2.385-1.996-2.385-.921 0-1.334.514-1.564.875v-.75H9.83c.023.497 0 5.297 0 5.297h1.734v-2.958c0-.159.011-.317.057-.43.126-.316.411-.644.89-.644.628 0 .879.486.879 1.198v2.834h1.734v-3.037z"/>
</svg>
