<svg xmlns="http://www.w3.org/2000/svg" width="22" height="22" viewBox="0 0 22 22">
    <path fill="#FFF" fill-rule="evenodd" d="M11 22C4.925 22 0 17.075 0 11S4.925 0 11 0s11 4.925 11 11-4.925 11-11 11zm-.065-12.141l.023.38-.379-.046C9.202 10.014 8 9.408 6.977 8.39l-.5-.505-.128.373c-.273.83-.099 1.709.469 2.299.303.326.235.373-.288.179-.181-.062-.34-.11-.355-.086-.053.055.128.762.272 1.041.197.389.598.77 1.037.994l.37.18-.438.007c-.424 0-.44.008-.394.17.152.506.75 1.042 1.415 1.275l.47.163-.409.248a4.208 4.208 0 0 1-2.028.575c-.34.008-.62.039-.62.062 0 .078.923.513 1.46.684 1.612.505 3.527.287 4.965-.575 1.021-.614 2.043-1.833 2.52-3.014.257-.629.514-1.779.514-2.33 0-.358.023-.404.447-.831.25-.249.484-.52.53-.598.075-.148.068-.148-.318-.016-.644.233-.734.202-.416-.148.234-.248.514-.699.514-.83 0-.024-.113.015-.242.085a4.182 4.182 0 0 1-.666.264l-.409.132-.37-.257c-.205-.14-.492-.295-.644-.341-.386-.109-.976-.093-1.324.03-.946.35-1.544 1.251-1.476 2.238z"/>
</svg>
